<?xml version="1.0" standalone="no"?>
<!DOCTYPE svg PUBLIC "-//W3C//DTD SVG 20010904//EN"
 "http://www.w3.org/TR/2001/REC-SVG-20010904/DTD/svg10.dtd">
<svg version="1.0" xmlns="http://www.w3.org/2000/svg"
 width="1472.000000pt" height="1472.000000pt" viewBox="0 0 1472.000000 1472.000000"
 preserveAspectRatio="xMidYMid meet">
<metadata>
Created by potrace 1.14, written by Peter Selinger 2001-2017
</metadata>
<g transform="translate(0.000000,1472.000000) scale(0.100000,-0.100000)"
fill="#000000" stroke="none">
<path d="M6900 14486 c-3 -2 -19 -6 -35 -9 l-30 -4 -2 -144 c-1 -79 -4 -370
-6 -647 -2 -276 -7 -505 -11 -509 -3 -3 -18 -8 -33 -9 -16 -2 -53 -6 -83 -10
-30 -3 -66 -8 -80 -9 -49 -6 -125 -17 -150 -21 -14 -3 -36 -7 -50 -8 -14 -2
-40 -7 -58 -11 -19 -4 -43 -8 -55 -10 -12 -2 -33 -6 -47 -9 -14 -4 -39 -8 -57
-11 -18 -2 -51 -9 -75 -16 -24 -6 -52 -13 -63 -14 -11 -2 -65 -15 -120 -30
-55 -14 -104 -28 -110 -29 -90 -23 -365 -114 -426 -140 -20 -8 -39 -12 -43 -9
-3 4 -6 1 -6 -5 0 -7 -6 -12 -14 -12 -35 0 -494 -219 -568 -271 -14 -11 -30
-19 -35 -19 -8 0 -85 -49 -109 -69 -6 -5 -26 -17 -45 -26 -19 -10 -36 -21 -39
-24 -3 -3 -25 -20 -50 -36 -25 -17 -49 -34 -55 -38 -5 -4 -46 -35 -90 -68
-134 -102 -229 -185 -359 -315 -76 -75 -197 -209 -209 -229 -4 -8 -18 -26 -30
-38 -12 -13 -31 -36 -42 -52 -11 -16 -37 -50 -57 -77 -21 -26 -38 -50 -38 -53
0 -4 -11 -21 -24 -38 -34 -45 -131 -210 -152 -257 -10 -22 -21 -40 -26 -40 -4
0 -8 -4 -8 -9 0 -6 -17 -47 -38 -93 -21 -46 -53 -121 -71 -168 -19 -47 -37
-94 -42 -105 -18 -44 -87 -285 -95 -332 -2 -13 -6 -34 -8 -48 -3 -13 -7 -28
-9 -32 -3 -5 -8 -28 -11 -53 -3 -25 -8 -56 -11 -70 -6 -31 -12 -79 -20 -150
-3 -30 -8 -73 -11 -95 -9 -64 -11 -441 -3 -548 7 -93 11 -127 26 -234 3 -27 7
-57 9 -68 1 -11 3 -20 4 -20 2 0 8 -30 14 -75 6 -47 62 -252 86 -318 11 -28
20 -55 21 -60 3 -15 19 -58 29 -74 6 -10 10 -22 10 -28 0 -15 99 -216 152
-308 53 -93 156 -245 187 -279 12 -12 21 -25 21 -29 0 -4 8 -14 18 -23 9 -9
40 -43 67 -76 60 -72 187 -199 275 -275 35 -30 68 -60 74 -65 6 -6 27 -22 46
-35 19 -13 37 -27 40 -30 8 -11 159 -120 165 -120 3 0 15 -8 26 -19 11 -10 40
-29 64 -41 25 -13 45 -27 45 -32 0 -4 5 -8 11 -8 6 0 23 -8 37 -19 68 -47 524
-280 562 -286 3 -1 22 -9 44 -18 21 -9 40 -17 42 -17 2 0 23 -9 47 -19 80 -36
401 -152 428 -155 8 -1 28 -7 45 -13 70 -27 519 -151 569 -157 12 -1 25 -5 30
-8 6 -3 40 -11 78 -19 37 -7 67 -16 67 -20 0 -4 8 -6 17 -5 9 2 43 -6 76 -16
32 -10 73 -20 90 -23 18 -3 40 -8 49 -11 9 -3 26 -7 38 -9 12 -2 30 -7 40 -10
18 -6 19 -26 14 -618 -3 -337 -7 -818 -7 -1069 -1 -252 -4 -458 -7 -458 -7 0
-3 -107 5 -119 3 -6 3 -11 -2 -11 -4 0 -8 -154 -8 -343 0 -188 -1 -347 -3
-353 -2 -9 -17 -8 -55 2 -29 7 -63 15 -77 18 -14 3 -40 9 -58 15 -18 5 -34 10
-37 11 -38 7 -231 73 -267 92 -21 10 -38 16 -38 13 0 -11 -264 131 -317 171
-17 13 -36 24 -41 24 -6 0 -12 3 -14 8 -1 4 -21 20 -43 37 -87 64 -209 185
-297 293 -29 35 -118 169 -118 177 0 4 -9 20 -21 36 -11 16 -17 29 -14 29 4 0
-3 12 -14 26 -12 15 -21 35 -21 44 0 10 -6 23 -14 29 -7 6 -16 25 -20 42 -3
17 -12 45 -20 62 -13 30 -37 100 -42 122 -1 6 -9 40 -18 76 -28 122 -31 140
-41 249 -4 41 -9 78 -12 83 -2 4 -533 7 -1178 7 l-1175 0 5 -112 c4 -102 11
-189 19 -273 8 -75 18 -162 22 -180 5 -23 15 -88 19 -125 2 -14 4 -26 5 -27 3
-4 5 -12 14 -68 7 -48 14 -78 37 -167 6 -23 12 -48 14 -57 8 -44 39 -153 63
-221 3 -8 4 -19 3 -24 -1 -4 2 -13 7 -20 5 -6 17 -35 27 -65 10 -30 38 -102
62 -160 25 -58 47 -114 50 -123 3 -10 9 -18 14 -18 5 0 9 -11 9 -24 0 -13 4
-26 8 -28 5 -1 21 -28 35 -58 60 -124 132 -242 231 -385 39 -55 73 -102 76
-105 3 -3 30 -36 61 -75 152 -191 348 -380 564 -545 71 -55 300 -210 309 -210
4 0 12 -5 19 -11 46 -41 412 -222 602 -297 55 -21 109 -43 120 -47 11 -5 22
-9 25 -10 3 -1 66 -21 140 -45 74 -24 140 -45 145 -46 6 -2 71 -19 145 -39
118 -32 262 -66 340 -80 14 -3 41 -8 60 -11 19 -4 42 -8 50 -9 8 -1 44 -8 78
-14 35 -7 80 -14 100 -17 21 -3 53 -7 72 -10 19 -3 53 -7 75 -9 22 -2 40 -5
40 -5 0 -1 11 -3 25 -5 14 -1 52 -6 85 -10 33 -3 76 -8 95 -10 19 -1 41 -3 48
-4 10 -1 11 -99 8 -483 -3 -266 -6 -485 -7 -488 -1 -3 0 -9 1 -15 1 -5 1 -80
0 -165 l-1 -155 653 1 c359 1 658 2 663 3 7 1 11 143 14 409 4 474 8 861 10
881 0 8 4 12 7 8 3 -3 17 -2 30 3 17 7 24 6 24 -3 0 -7 3 -8 8 -2 4 6 27 11
52 12 43 1 126 10 180 18 14 2 54 7 90 10 36 4 68 9 72 11 4 2 31 7 61 9 30 3
65 8 78 11 13 3 33 7 44 9 11 2 29 6 40 8 11 3 45 8 75 13 58 8 68 10 73 14 2
2 16 5 62 13 17 3 41 8 55 11 14 3 35 8 48 10 12 3 26 7 30 10 5 3 22 7 38 10
16 3 56 13 89 22 33 8 67 17 75 19 8 2 29 8 45 15 17 6 31 11 33 11 1 -1 3 -1
5 0 1 0 9 2 17 4 23 5 261 86 295 100 114 48 192 78 203 78 6 0 12 4 12 9 0 4
6 8 14 8 7 0 84 35 169 79 86 43 159 76 162 73 3 -3 5 -1 5 5 0 5 28 25 62 43
67 34 249 153 309 201 20 16 42 29 48 29 6 0 11 4 11 9 0 4 17 20 38 34 20 14
51 37 67 51 17 15 50 43 74 64 50 42 244 234 281 278 14 16 58 69 97 119 40
49 77 95 82 101 10 12 127 192 159 244 56 92 187 364 183 383 0 4 3 7 9 7 6 0
9 3 8 8 0 4 1 14 5 22 3 8 15 44 27 80 12 36 26 74 31 85 10 21 37 114 44 150
3 11 13 52 24 91 11 39 22 89 25 110 4 22 8 46 11 54 5 16 14 75 20 125 2 17
4 30 5 30 1 0 3 14 5 30 2 17 6 55 9 85 3 30 9 87 12 125 8 87 11 525 4 525
-3 0 -6 8 -6 18 0 14 -12 142 -19 207 -2 18 -11 73 -21 130 -11 62 -37 182
-41 195 -3 8 -7 22 -9 30 -4 24 -12 55 -14 58 -2 1 -4 7 -5 12 -1 6 -4 12 -5
15 -1 3 -3 8 -4 13 -16 59 -29 101 -36 117 -5 11 -23 57 -39 102 -17 45 -34
90 -40 100 -5 10 -31 63 -57 118 -67 138 -222 394 -246 403 -4 2 -8 8 -8 14 0
5 -6 15 -12 22 -7 7 -24 28 -38 47 -14 18 -39 49 -56 69 -17 19 -42 48 -55 65
-60 73 -271 276 -379 364 -14 11 -32 26 -40 34 -8 7 -49 37 -90 67 -41 29 -81
60 -87 69 -7 8 -13 11 -13 5 0 -5 -4 -4 -8 1 -4 6 -32 26 -62 45 -30 19 -57
37 -60 40 -11 11 -112 70 -121 70 -5 0 -9 3 -9 8 0 4 -15 13 -32 21 -18 8 -35
17 -38 20 -8 10 -47 30 -215 115 -169 85 -194 97 -370 169 -145 59 -173 69
-181 67 -4 -1 -10 2 -13 7 -3 5 -53 24 -111 43 -58 19 -107 37 -110 40 -3 3
-14 6 -25 8 -11 2 -27 6 -35 9 -8 3 -21 7 -28 9 -8 1 -21 6 -30 10 -9 4 -21 8
-27 9 -5 2 -47 14 -92 29 -46 14 -93 28 -105 30 -13 3 -39 10 -58 16 -19 6
-43 13 -53 15 -9 2 -45 11 -80 20 -64 17 -88 23 -122 30 -33 8 -54 13 -190 46
-71 17 -164 39 -205 48 l-75 17 3 505 c2 277 5 669 6 871 1 202 5 370 9 374 3
3 2 16 -2 28 -4 11 -6 35 -5 51 4 62 5 81 3 120 0 22 0 42 0 45 1 3 3 186 4
407 1 260 6 403 12 404 6 1 15 0 20 -1 6 -1 19 -4 31 -6 25 -5 201 -61 229
-73 29 -13 59 -24 67 -25 4 -1 13 -7 20 -13 6 -7 17 -13 24 -13 6 0 47 -19 90
-42 278 -146 506 -377 633 -640 50 -105 90 -215 106 -293 2 -11 9 -42 15 -70
10 -46 22 -133 23 -162 0 -7 5 -13 11 -14 14 -1 2297 -1 2314 0 18 1 9 207
-19 411 -14 104 -18 131 -24 160 -3 14 -7 39 -10 55 -6 41 -11 67 -35 160 -11
44 -22 85 -23 92 -2 7 -6 16 -10 19 -4 4 -7 15 -7 23 0 27 -68 231 -92 275 -5
10 -11 26 -13 35 -9 47 -133 295 -218 436 -49 81 -166 253 -204 300 -127 156
-137 168 -269 299 -126 126 -141 140 -239 221 -33 28 -62 52 -65 55 -3 3 -30
23 -60 45 -30 22 -60 44 -67 50 -7 5 -19 16 -27 23 -8 6 -18 12 -22 12 -3 0
-23 14 -44 30 -21 17 -42 30 -48 30 -5 0 -15 6 -21 13 -6 8 -31 24 -56 37 -25
13 -45 27 -45 32 0 4 -9 8 -20 8 -11 0 -20 4 -20 9 0 5 -15 14 -32 22 -18 7
-35 16 -38 19 -6 8 -354 180 -363 180 -4 0 -30 11 -59 25 -28 14 -54 23 -56
20 -3 -3 -12 1 -20 7 -8 7 -19 13 -26 15 -24 5 -321 108 -326 113 -3 3 -12 5
-20 5 -8 -1 -19 1 -25 4 -5 3 -14 7 -20 8 -5 1 -44 12 -85 23 -41 12 -84 23
-95 26 -11 2 -29 6 -40 9 -67 17 -297 64 -335 69 -25 3 -56 9 -70 12 -14 3
-38 7 -55 9 -82 9 -132 16 -147 21 -10 3 -36 6 -58 6 l-41 0 5 630 c2 346 7
632 9 635 3 2 1 18 -5 34 -9 26 -26 36 -53 29 -5 -2 -21 -2 -35 -2 -14 1 -41
1 -60 1 -31 -1 -60 0 -102 1 -7 1 -57 -1 -111 -2 -55 -2 -101 0 -104 5 -2 4
-12 3 -21 -1 -18 -9 -54 -8 -69 1 -5 3 -15 2 -22 -2 -7 -5 -28 -5 -47 -1 -19
4 -34 5 -34 1 0 -8 -93 -7 -107 2 -6 4 -14 4 -17 -1 -6 -10 -67 -8 -85 2 -7 5
-16 5 -20 0 -5 -7 -57 -9 -156 -4 -5 1 -54 0 -107 -2 -54 -2 -99 1 -101 5 -1
5 -5 6 -7 3z m-105 -3843 c-2 -258 -7 -785 -10 -1173 -4 -388 -8 -738 -8 -778
0 -62 -3 -72 -16 -66 -9 3 -41 15 -71 25 -30 11 -69 26 -87 34 -17 8 -34 15
-37 15 -14 0 -249 113 -331 158 -37 21 -178 113 -185 121 -3 3 -23 19 -45 35
-35 26 -178 167 -213 210 -78 97 -165 278 -186 386 -3 14 -8 36 -11 50 -5 20
-15 146 -17 205 -1 28 13 198 16 204 2 3 7 22 10 41 3 19 15 67 27 105 13 39
23 72 24 75 10 44 116 224 171 290 37 44 131 136 179 175 20 17 42 35 48 40
36 31 234 145 252 145 7 0 20 6 27 13 7 7 33 21 58 29 25 9 79 28 120 43 41
15 84 29 95 32 38 8 50 11 53 13 1 2 5 3 10 5 37 10 61 15 86 19 16 3 31 8 34
11 3 3 6 5 8 5 1 0 1 -210 -1 -467z m1348 -4571 c15 -2 27 -7 27 -11 0 -4 8
-7 18 -8 10 -1 67 -20 127 -43 61 -23 116 -42 123 -43 6 0 12 -4 12 -8 0 -4
12 -10 28 -13 15 -4 48 -18 75 -32 26 -13 47 -21 47 -17 0 5 4 4 8 -2 4 -5 39
-25 77 -43 39 -19 102 -54 141 -78 40 -24 74 -44 78 -44 3 0 15 -8 25 -17 35
-32 50 -43 58 -43 5 0 15 -9 23 -20 8 -11 19 -20 25 -20 18 0 225 -221 225
-240 0 -5 6 -15 13 -22 6 -7 21 -31 32 -53 11 -22 24 -46 29 -54 6 -7 11 -18
13 -25 1 -6 13 -40 26 -76 14 -36 27 -81 30 -101 2 -20 8 -43 13 -50 11 -18
14 -329 3 -329 -4 0 -6 -7 -3 -15 17 -44 -111 -428 -148 -443 -4 -2 -8 -8 -8
-14 0 -10 -76 -122 -115 -167 -27 -32 -126 -131 -158 -158 -46 -39 -176 -133
-183 -133 -4 0 -15 -6 -23 -14 -23 -20 -191 -106 -191 -98 0 4 -4 2 -8 -4 -8
-13 -267 -110 -317 -120 -5 -1 -30 -7 -55 -14 -52 -14 -73 -19 -117 -27 -29
-5 -33 -3 -34 18 -1 13 -1 27 0 31 0 4 3 326 7 715 5 591 13 1431 14 1468 0 6
-1 30 -3 55 -2 25 0 55 5 67 4 12 3 25 -2 28 -6 3 -6 15 0 30 7 18 6 25 -3 26
-9 0 -9 2 0 6 9 3 10 10 3 23 -6 10 -6 21 -2 24 7 4 8 42 2 71 -1 6 -2 21 -1
34 1 18 5 22 19 16 9 -4 29 -10 45 -13z"/>
</g>
</svg>
